<svg xmlns="http://www.w3.org/2000/svg" width="1080" height="500" viewBox="0 0 1080 500" role="img" aria-labelledby="title desc">
<title id="title">备份：先发布新归档，再清理旧文件</title>
<desc id="desc">失败不能把最后一份可恢复的数据一起带走。四步示意，每 12 秒一轮，播放三轮后停止。预演不创建目录或锁；磁盘间复制不是原子改名，数据库还需一致性备份。</desc>
<style>
text{font-family:"Noto Sans CJK SC","Microsoft YaHei",sans-serif}
.code{font-family:Consolas,monospace}
.focus{opacity:0}
.output{opacity:0}.output.phase-0{opacity:1}
@keyframes step0{0%,24.9%{opacity:1}25%,100%{opacity:0}}.phase-0{animation:step0 12s linear 3}@keyframes step1{0%,24.9%{opacity:0}25%,49.9%{opacity:1}50%,100%{opacity:0}}.phase-1{animation:step1 12s linear 3}@keyframes step2{0%,49.9%{opacity:0}50%,74.9%{opacity:1}75%,100%{opacity:0}}.phase-2{animation:step2 12s linear 3}@keyframes step3{0%,74.9%{opacity:0}75%,100%{opacity:1}}.phase-3{animation:step3 12s linear 3}
@keyframes travel{0%,15%{transform:translateX(0)}25%,40%{transform:translateX(260px)}50%,65%{transform:translateX(520px)}75%,100%{transform:translateX(780px)}}
.token{animation:travel 12s ease-in-out 3}
@media (prefers-reduced-motion:reduce){.focus,.token,.output{animation:none}.token{display:none}}
</style>
<rect width="1080" height="500" rx="22" fill="#0d1117"/>
<text x="40" y="48" fill="#7ee787" font-size="13" letter-spacing="2">LINUX · VISUAL LAB</text>
<text x="40" y="88" fill="#f0f6fc" font-size="28" font-weight="bold">备份：先发布新归档，再清理旧文件</text>
<text x="40" y="120" fill="#9da7b3" font-size="16">失败不能把最后一份可恢复的数据一起带走</text>
<path d="M148 320 H928" fill="none" stroke="#303d4d" stroke-width="3"/>

<g>
<rect x="40" y="157" width="220" height="145" rx="14" fill="#161b22" stroke="#303d4d"/>
<rect class="focus phase-0" x="40" y="157" width="220" height="145" rx="14" fill="none" stroke="#58a6ff" stroke-width="3"/>
<text x="56" y="189" fill="#f0f6fc" font-size="18" font-weight="bold">01 检查与加锁</text>
<text class="code" x="56" y="221" fill="#79c0ff" font-size="13">路径 / 参数 / 锁</text>
<text x="56" y="252" fill="#c9d1d9" font-size="14">备份目录在源目录外</text>
<text x="56" y="276" fill="#9da7b3" font-size="14">同目录一次只允许一写</text>
<circle cx="148" cy="320" r="5" fill="#62758b"/>
</g>
<g>
<rect x="300" y="157" width="220" height="145" rx="14" fill="#161b22" stroke="#303d4d"/>
<rect class="focus phase-1" x="300" y="157" width="220" height="145" rx="14" fill="none" stroke="#58a6ff" stroke-width="3"/>
<text x="316" y="189" fill="#f0f6fc" font-size="18" font-weight="bold">02 临时归档</text>
<text class="code" x="316" y="221" fill="#79c0ff" font-size="13">tar → 临时文件</text>
<text x="316" y="252" fill="#c9d1d9" font-size="14">临时文件放在目标盘</text>
<text x="316" y="276" fill="#9da7b3" font-size="14">出错就保留全部旧备份</text>
<circle cx="408" cy="320" r="5" fill="#62758b"/>
</g>
<g>
<rect x="560" y="157" width="220" height="145" rx="14" fill="#161b22" stroke="#303d4d"/>
<rect class="focus phase-2" x="560" y="157" width="220" height="145" rx="14" fill="none" stroke="#58a6ff" stroke-width="3"/>
<text x="576" y="189" fill="#f0f6fc" font-size="18" font-weight="bold">03 校验与发布</text>
<text class="code" x="576" y="221" fill="#79c0ff" font-size="13">tar -tzf → rename</text>
<text x="576" y="252" fill="#c9d1d9" font-size="14">确认归档能够读取</text>
<text x="576" y="276" fill="#9da7b3" font-size="14">同文件系统内改名</text>
<circle cx="668" cy="320" r="5" fill="#62758b"/>
</g>
<g>
<rect x="820" y="157" width="220" height="145" rx="14" fill="#161b22" stroke="#303d4d"/>
<rect class="focus phase-3" x="820" y="157" width="220" height="145" rx="14" fill="none" stroke="#58a6ff" stroke-width="3"/>
<text x="836" y="189" fill="#f0f6fc" font-size="18" font-weight="bold">04 保留五份</text>
<text class="code" x="836" y="221" fill="#79c0ff" font-size="13">新归档 + 四份旧归档</text>
<text x="836" y="252" fill="#c9d1d9" font-size="14">NUL 分隔完整文件名</text>
<text x="836" y="276" fill="#9da7b3" font-size="14">只删除专用目录中的旧档</text>
<circle cx="928" cy="320" r="5" fill="#62758b"/>
</g>
<circle class="token" cx="148" cy="320" r="8" fill="#7ee787"/>
<rect x="40" y="356" width="1000" height="106" rx="12" fill="#101f2c"/>
<text x="58" y="390" fill="#e6edf3" font-size="16">动手：对比 --dry-run、成功备份与故意归档失败后的目录内容。</text>
<text x="58" y="421" fill="#9da7b3" font-size="14">预演不创建目录或锁；磁盘间复制不是原子改名，数据库还需一致性备份。</text>
<text x="58" y="445" fill="#7790a9" font-size="12">静态文字始终可读 · 支持减少动态效果设置 · 学习站可暂停与单步</text>
</svg>
